PathFileType	4	(X/Y/Z)	/Users/itak/Documents/Research/Walk-IL/dataset/trc/00039_00004.trc
DataRate	CameraRate	NumFrames	NumMarkers	Units	OrigDataRate	OrigDataStartFrame	OrigNumFrames
100.000000	100.000000	4	53	mm	100.000000	0	468
Frame#	Time	RPSI			LPSI			L3			STRN			T10			C7			CLAV			RBAK			LBAK			LSHO			LUPA			LAEL			LAOL			LWTS			LWPS			LFRA			LIFD			LHPS			LHTS			RSHO			RUPA			RAEL			RAOL			RWTS			RWPS			RFRA			RIFD			RHTS			RHPS			RBHD			LFHD			RFHD			LBHD			LHIP			RHIP			RASI			LASI			LKNE			LTHI			LANK			LTIP			LTOE			LMT1			LMT5			LHEE			RKNE			RTHI			RANK			RTIP			RTOE			RMT1			RMT5			RHEE			
		X1	Y1	Z1	X2	Y2	Z2	X3	Y3	Z3	X4	Y4	Z4	X5	Y5	Z5	X6	Y6	Z6	X7	Y7	Z7	X8	Y8	Z8	X9	Y9	Z9	X10	Y10	Z10	X11	Y11	Z11	X12	Y12	Z12	X13	Y13	Z13	X14	Y14	Z14	X15	Y15	Z15	X16	Y16	Z16	X17	Y17	Z17	X18	Y18	Z18	X19	Y19	Z19	X20	Y20	Z20	X21	Y21	Z21	X22	Y22	Z22	X23	Y23	Z23	X24	Y24	Z24	X25	Y25	Z25	X26	Y26	Z26	X27	Y27	Z27	X28	Y28	Z28	X29	Y29	Z29	X30	Y30	Z30	X31	Y31	Z31	X32	Y32	Z32	X33	Y33	Z33	X34	Y34	Z34	X35	Y35	Z35	X36	Y36	Z36	X37	Y37	Z37	X38	Y38	Z38	X39	Y39	Z39	X40	Y40	Z40	X41	Y41	Z41	X42	Y42	Z42	X43	Y43	Z43	X44	Y44	Z44	X45	Y45	Z45	X46	Y46	Z46	X47	Y47	Z47	X48	Y48	Z48	X49	Y49	Z49	X50	Y50	Z50	X51	Y51	Z51	X52	Y52	Z52	X53	Y53	Z53	

1	0	-1211.741088867188	1076.835571289062	121.6861190795898	-1215.865844726562	1067.656005859375	-42.48821258544922	-1219.338623046875	1123.554321289062	28.90256309509277	-1009.571716308594	1330.596069335938	38.57775497436523	-1255.187377929688	1262.770263671875	21.25103187561035	-1224.536743164062	1533.288818359375	8.320930480957031	-1058.63525390625	1454.390258789062	30.07661819458008	-1270.030639648438	1392.3173828125	85.51133728027344	-1230.943603515625	1490.332397460938	-89.68737030029297	-1122.750366210938	1505.749389648438	-155.3081207275391	-1136.834228515625	1375.613647460938	-231.3017425537109	-1116.37353515625	1158.049560546875	-253.0424652099609	-1174.992919921875	1142.556030273438	-165.7705078125	-1022.48095703125	908.022216796875	-191.6117401123047	-1095.579467773438	892.11083984375	-239.0126647949219	-1097.85009765625	1043.082153320312	-257.6042785644531	-994.4953002929688	724.6873168945312	-168.2825469970703	-1059.409912109375	802.9481201171875	-235.5239868164062	-996.9918823242188	815.3051147460938	-202.4145355224609	-1165.40478515625	1526.148193359375	190.7700653076172	-1180.718139648438	1454.780639648438	261.1051940917969	-1197.608764648438	1183.565795898438	280.8518676757812	-1183.50390625	1157.205200195312	185.0159454345703	-1048.553833007812	933.5650634765625	267.4935913085938	-1118.90869140625	914.4412841796875	323.4158630371094	-1181.471801757812	1108.399536132812	297.8178100585938	-1020.6748046875	748.579345703125	256.484619140625	-1010.14990234375	826.1552734375	286.3589172363281	-1071.556640625	817.81640625	329.5967102050781	-1185.155639648438	1721.540283203125	-56.19326782226562	-1009.395202636719	1750.469116210938	70.45172119140625	-1007.37451171875	1746.144775390625	-28.11554145812988	-1181.56396484375	1726.317138671875	88.59665679931641	-1120.071899414062	963.6987915039062	-147.1533355712891	-1099.048095703125	961.093994140625	221.3741760253906	-997.3984985351562	997.7608642578125	148.3896026611328	-1002.4404296875	1012.76953125	-85.6331787109375	-1090.80908203125	519.3609008789062	-105.071418762207	-1107.56005859375	656.7289428710938	-138.9174041748047	-1190.791748046875	44.20257949829102	-115.4779968261719	-1174.498413085938	291.9938659667969	-129.0238952636719	-975.3690795898438	41.03026962280273	-37.68579483032227	-1035.824829101562	50.66984558105469	-25.05309295654297	-1065.210693359375	41.78109741210938	-127.2878646850586	-1262.751098632812	50.43595504760742	-67.06288146972656	-1109.990844726562	524.6118774414062	170.4458160400391	-1080.983764648438	792.5087280273438	216.1398620605469	-1227.97021484375	48.11495971679688	143.2798004150391	-1139.529296875	404.7774353027344	168.442626953125	-993.60791015625	45.66538238525391	109.3966903686523	-1056.170776367188	50.31302261352539	77.10781097412109	-1079.26123046875	45.25465774536133	171.3953857421875	-1280.957763671875	48.18815994262695	96.90975189208984	
2	0.01	-1211.739624023438	1076.8359375	121.6771392822266	-1215.860961914062	1067.642211914062	-42.48821258544922	-1219.333129882812	1123.550659179688	28.89727401733398	-1009.578369140625	1330.591918945312	38.51058197021484	-1255.196899414062	1262.753662109375	21.26754188537598	-1224.548217773438	1533.284301757812	8.315079689025879	-1058.656494140625	1454.381103515625	29.98748016357422	-1270.010009765625	1392.313720703125	85.52885437011719	-1231.001586914062	1490.31103515625	-89.68634796142578	-1122.855590820312	1505.699584960938	-155.3759155273438	-1136.859619140625	1375.582275390625	-231.3283386230469	-1116.370971679688	1158.003784179688	-253.0633697509766	-1174.973022460938	1142.50537109375	-165.7716217041016	-1022.403991699219	908.0073852539062	-191.6611785888672	-1095.521240234375	892.0752563476562	-239.0275115966797	-1097.848266601562	1043.033203125	-257.6322326660156	-994.20166015625	724.7503051757812	-168.2592620849609	-1059.340698242188	802.9177856445312	-235.5529479980469	-996.9249877929688	815.2954711914062	-202.489990234375	-1165.357177734375	1526.171997070312	190.7480926513672	-1180.586547851562	1454.818969726562	261.0982666015625	-1197.402954101562	1183.58056640625	280.8263244628906	-1183.36328125	1157.236206054688	184.9710388183594	-1048.415283203125	933.6912841796875	267.3999633789062	-1118.634033203125	914.48193359375	323.2376098632812	-1181.196044921875	1108.409301757812	297.7947387695312	-1020.376342773438	748.6183471679688	256.2511596679688	-1009.686462402344	826.2738037109375	286.1429748535156	-1071.185668945312	817.84423828125	329.3693542480469	-1185.321533203125	1721.39111328125	-56.29109191894531	-1009.702087402344	1750.653198242188	70.26680755615234	-1007.509582519531	1746.23046875	-28.22202110290527	-1181.779663085938	1726.284790039062	88.42964935302734	-1120.074584960938	963.6881713867188	-147.1526336669922	-1099.0537109375	961.0933227539062	221.3724975585938	-997.3851318359375	997.7677612304688	148.3731384277344	-1002.432739257812	1012.757934570312	-85.64321136474609	-1090.812866210938	519.3568115234375	-105.070068359375	-1107.559692382812	656.72509765625	-138.9052276611328	-1190.787475585938	44.19173431396484	-115.4758834838867	-1174.497314453125	291.9930114746094	-129.0226898193359	-975.373779296875	41.03191757202148	-37.6840934753418	-1035.811889648438	50.66860961914062	-25.0483341217041	-1065.209838867188	41.7806396484375	-127.2874069213867	-1262.778442382812	50.45090103149414	-67.07437133789062	-1109.957153320312	524.6168823242188	170.44140625	-1080.912963867188	792.509765625	216.1071166992188	-1227.962524414062	48.10790634155273	143.2898101806641	-1139.498901367188	404.7792663574219	168.4448852539062	-993.6011962890625	45.66259002685547	109.3985748291016	-1056.17333984375	50.32357025146484	77.11227416992188	-1079.203979492188	45.22677612304688	171.3997955322266	-1280.943359375	48.17817687988281	96.92105865478516	
3	0.02	-1211.7373046875	1076.836669921875	121.6681976318359	-1215.856689453125	1067.623046875	-42.4884147644043	-1219.325927734375	1123.545532226562	28.89050483703613	-1009.585021972656	1330.587280273438	38.41898345947266	-1255.2119140625	1262.731689453125	21.28687477111816	-1224.566650390625	1533.272338867188	8.301584243774414	-1058.685668945312	1454.370727539062	29.87062644958496	-1269.985107421875	1392.308227539062	85.54960632324219	-1231.073364257812	1490.275512695312	-89.68796539306641	-1122.991088867188	1505.63671875	-155.4645690917969	-1136.901245117188	1375.5400390625	-231.3653106689453	-1116.37060546875	1157.943725585938	-253.0864868164062	-1174.950073242188	1142.440551757812	-165.7681121826172	-1022.303405761719	907.9920654296875	-191.7085723876953	-1095.444213867188	892.0269775390625	-239.0310974121094	-1097.851318359375	1042.969604492188	-257.6596984863281	-993.9152221679688	724.7952880859375	-168.2430419921875	-1059.250610351562	802.880126953125	-235.57666015625	-996.8413696289062	815.2821655273438	-202.5711059570312	-1165.296508789062	1526.203247070312	190.7133941650391	-1180.42626953125	1454.864379882812	261.0840454101562	-1197.14208984375	1183.59765625	280.7972106933594	-1183.189086914062	1157.272338867188	184.9136962890625	-1048.2294921875	933.8084716796875	267.2590942382812	-1118.30224609375	914.5303955078125	323.0311889648438	-1180.862670898438	1108.422485351562	297.7632141113281	-1020.03271484375	748.6749877929688	255.9730072021484	-1009.172790527344	826.3892211914062	285.8874206542969	-1070.724731445312	817.8772583007812	329.0721740722656	-1185.527099609375	1721.2021484375	-56.41225814819336	-1010.056335449219	1750.880737304688	70.0557861328125	-1007.704711914062	1746.341552734375	-28.36452293395996	-1182.061157226562	1726.2353515625	88.22689819335938	-1120.073974609375	963.6735229492188	-147.1504516601562	-1099.0595703125	961.0938110351562	221.3718109130859	-997.372314453125	997.7765502929688	148.3550720214844	-1002.425231933594	1012.738891601562	-85.65360260009766	-1090.817749023438	519.350830078125	-105.0669250488281	-1107.56005859375	656.719482421875	-138.8891296386719	-1190.783081054688	44.18115997314453	-115.4737854003906	-1174.496704101562	291.9916381835938	-129.0218658447266	-975.3777465820312	41.03410339355469	-37.68143081665039	-1035.793212890625	50.66773986816406	-25.04109954833984	-1065.209838867188	41.7807502746582	-127.2873001098633	-1262.80126953125	50.46140670776367	-67.08493041992188	-1109.915161132812	524.62109375	170.4400787353516	-1080.8369140625	792.5105590820312	216.0772399902344	-1227.953491210938	48.09981536865234	143.3022155761719	-1139.461059570312	404.7808532714844	168.4495239257812	-993.596435546875	45.66178512573242	109.3995208740234	-1056.1748046875	50.33355331420898	77.11763000488281	-1079.14794921875	45.20040512084961	171.4039916992188	-1280.9296875	48.16839218139648	96.93296813964844	
4	0.03	-1211.734008789062	1076.837890625	121.6607666015625	-1215.853881835938	1067.598999023438	-42.48877334594727	-1219.3173828125	1123.539184570312	28.88256072998047	-1009.588073730469	1330.582763671875	38.30319595336914	-1255.233520507812	1262.704711914062	21.30741500854492	-1224.593383789062	1533.25048828125	8.277959823608398	-1058.723266601562	1454.35986328125	29.72885322570801	-1269.957641601562	1392.300659179688	85.5721435546875	-1231.15673828125	1490.225830078125	-89.6942138671875	-1123.151245117188	1505.563598632812	-155.5713348388672	-1136.963500976562	1375.4873046875	-231.4131317138672	-1116.374145507812	1157.870727539062	-253.1087799072266	-1174.9267578125	1142.363647460938	-165.7581939697266	-1022.183227539062	907.978271484375	-191.7447204589844	-1095.349609375	891.96630859375	-239.0159454345703	-1097.861694335938	1042.89306640625	-257.6815795898438	-993.6555786132812	724.8167114257812	-168.2287902832031	-1059.14306640625	802.8370361328125	-235.5876312255859	-996.7449951171875	815.2664184570312	-202.64697265625	-1165.224731445312	1526.241455078125	190.6641082763672	-1180.246704101562	1454.91357421875	261.0604553222656	-1196.837524414062	1183.615600585938	280.7664184570312	-1182.990966796875	1157.310791015625	184.8461303710938	-1047.99658203125	933.8937377929688	267.067138671875	-1117.932983398438	914.583251953125	322.81396484375	-1180.491577148438	1108.439331054688	297.7235412597656	-1019.675842285156	748.7474365234375	255.6730041503906	-1008.659118652344	826.4845581054688	285.6072387695312	-1070.2041015625	817.9141235351562	328.7194213867188	-1185.764282226562	1720.982421875	-56.55197143554688	-1010.432800292969	1751.140869140625	69.83612823486328	-1007.962219238281	1746.475830078125	-28.54096603393555	-1182.398559570312	1726.166137695312	88.00172424316406	-1120.06689453125	963.654052734375	-147.1458587646484	-1099.064453125	961.0960693359375	221.3731536865234	-997.3616333007812	997.7869873046875	148.3374633789062	-1002.418395996094	1012.712036132812	-85.66298675537109	-1090.822998046875	519.3431396484375	-105.0617141723633	-1107.561889648438	656.712158203125	-138.8697204589844	-1190.779418945312	44.17226409912109	-115.472053527832	-1174.4970703125	291.9896545410156	-129.0218200683594	-975.380615234375	41.03640747070312	-37.67790222167969	-1035.768798828125	50.66793060302734	-25.03104782104492	-1065.210571289062	41.78127670288086	-127.2873687744141	-1262.81787109375	50.46737670898438	-67.0943603515625	-1109.866943359375	524.6231689453125	170.4435577392578	-1080.762084960938	792.5101318359375	216.0542297363281	-1227.944946289062	48.0921745300293	143.3152160644531	-1139.417724609375	404.7814331054688	168.4576721191406	-993.5950317382812	45.66349792480469	109.399040222168	-1056.17529296875	50.34116363525391	77.12229919433594	-1079.10009765625	45.17827987670898	171.4075012207031	-1280.917602539062	48.15951538085938	96.94465637207031	
